<?xml version="1.0" encoding="utf-8"?>
<!-- Generator: Adobe Illustrator 25.0.1, SVG Export Plug-In . SVG Version: 6.00 Build 0)  -->
<!DOCTYPE svg PUBLIC "-//W3C//DTD SVG 1.1//EN" "http://www.w3.org/Graphics/SVG/1.1/DTD/svg11.dtd" [
	<!ENTITY ns_extend "http://ns.adobe.com/Extensibility/1.0/">
	<!ENTITY ns_ai "http://ns.adobe.com/AdobeIllustrator/10.0/">
	<!ENTITY ns_graphs "http://ns.adobe.com/Graphs/1.0/">
	<!ENTITY ns_vars "http://ns.adobe.com/Variables/1.0/">
	<!ENTITY ns_imrep "http://ns.adobe.com/ImageReplacement/1.0/">
	<!ENTITY ns_sfw "http://ns.adobe.com/SaveForWeb/1.0/">
	<!ENTITY ns_custom "http://ns.adobe.com/GenericCustomNamespace/1.0/">
	<!ENTITY ns_adobe_xpath "http://ns.adobe.com/XPath/1.0/">
]>
<svg version="1.1" id="Layer_1" xmlns:x="&ns_extend;" xmlns:i="&ns_ai;" xmlns:graph="&ns_graphs;"
	 xmlns="http://www.w3.org/2000/svg" xmlns:xlink="http://www.w3.org/1999/xlink" x="0px" y="0px" width="512px" height="512px"
	 viewBox="0 0 512 512" style="enable-background:new 0 0 512 512;" xml:space="preserve">
<style type="text/css">
	.st0{fill:#171614;}
	.st1{fill:#1A170E;}
	.st2{fill:#F9D500;}
	.st3{fill:#F8D601;}
	.st4{fill:#F6D502;}
	.st5{fill:#F6D503;}
	.st6{fill:#1C180A;}
	.st7{fill:#1B1809;}
	.st8{fill:#1B1708;}
	.st9{fill:#1C1809;}
	.st10{fill:#1C1807;}
	.st11{fill:#F3D406;}
	.st12{fill:#F2D407;}
	.st13{fill:#D73237;}
	.st14{fill:#DA3336;}
	.st15{fill:#D63235;}
	.st16{fill:#D73335;}
	.st17{fill:#F0D30C;}
	.st18{fill:#D73235;}
	.st19{fill:#DA3237;}
	.st20{fill:#F4D401;}
	.st21{fill:#E4CF2C;}
	.st22{fill:#D9CB4D;}
	.st23{fill:#D8CA49;}
	.st24{fill:#E5D223;}
	.st25{fill:#DBCF52;}
	.st26{fill:#DECB32;}
	.st27{fill:#F0D617;}
	.st28{fill:#D7CA47;}
	.st29{fill:#DDCC41;}
	.st30{fill:#E4CF23;}
	.st31{fill:#D7C841;}
	.st32{fill:#E1CD23;}
	.st33{fill:#F3DB3B;}
	.st34{fill:#CEC046;}
	.st35{fill:#D5CA4E;}
	.st36{fill:#B4AF63;}
	.st37{fill:#DDCC45;}
	.st38{fill:#CEC64A;}
	.st39{fill:#D2C751;}
	.st40{fill:#ECD011;}
	.st41{fill:#F2D409;}
	.st42{fill:#E0CC42;}
	.st43{fill:#F5DF3F;}
	.st44{fill:#E7D747;}
	.st45{fill:#E6CF4C;}
	.st46{fill:#19160E;}
	.st47{fill:#1B170B;}
	.st48{fill:#191815;}
	.st49{fill:#181814;}
	.st50{fill:#E6D23B;}
	.st51{fill:#E2CD43;}
	.st52{fill:#EED83C;}
	.st53{fill:#EDD83D;}
	.st54{fill:#E4D144;}
	.st55{fill:#4A3900;}
	.st56{fill:#362600;}
	.st57{fill:#382800;}
	.st58{fill:#3E2E00;}
	.st59{fill:#372601;}
	.st60{fill:#3A2E00;}
	.st61{fill:#EDD83F;}
	.st62{fill:#EAD63C;}
	.st63{fill:#4F4003;}
	.st64{fill:#463702;}
	.st65{fill:#483400;}
	.st66{fill:#443400;}
	.st67{fill:#3D2D00;}
	.st68{fill:#271A00;}
	.st69{fill:#E7D438;}
	.st70{fill:#DFCF42;}
	.st71{fill:#D9CE51;}
	.st72{fill:#F5D503;}
	.st73{fill:#DBCE40;}
	.st74{fill:#E9D03A;}
	.st75{fill:#F3D505;}
	.st76{fill:#DBCB3E;}
	.st77{fill:#CDC572;}
	.st78{fill:#F2D308;}
	.st79{fill:#F3D403;}
</style>
<metadata>
	<sfw  xmlns="&ns_sfw;">
		<slices></slices>
		<sliceSourceBounds  bottomLeftOrigin="true" height="346.892" width="496.747" x="8.878" y="49.028"></sliceSourceBounds>
	</sfw>
</metadata>
<g id="_x36_jCwFC_1_">
	<g>
		<path class="st0" d="M120.307,320.825c-5.734-9.158-10.133-18.933-12.55-29.454c-0.738-3.214-1.641-4.139-5.015-4.095
			c-5.65,0.075-10.772-1.982-14.731-6.286c-1.124-1.222-2.012-2.525-4.084-2.326c-9.549,0.919-16.349-4.079-23.03-11.599
			c-1.084,8.289-0.929,15.743-0.669,23.196c0.275,7.9-2.973,10.283-9.803,6.784c-11.348-5.815-21.815-12.885-30.17-22.698
			c-5.127-6.022-4.654-7.889,2.561-10.53c5.074-1.857,10.028-3.912,14.874-8.057c-6.539,0.1-11.352,2.921-16.303,5.003
			c-4.292,1.805-6.582,0.88-6.638-3.759c-0.066-5.465-2.441-11.475,3.332-16.014c-2.9-2.482-9.735,0.682-9.17-6.15
			c0.331-3.994,0.452-8.353,3.843-11.201c1.738-1.459,1.137-2.124,0.543-3.882c-1.566-4.632,4.933-14.717,9.8-15.604
			c0.948-0.173,2.108,0.826,3.111,1.258c0.145-5.127,7.717-11.836,13.062-11.756c3.202,0.048,2.37,2.263,2.685,3.951
			c1.811,9.701,5.397,18.654,11.634,27.835c1.976-7.673,0.931-14.536,1.631-21.22c1.027-9.81,4.054-11.168,13.111-6.676
			c10.017,4.968,17.35,13.376,26.343,19.649c4.809,3.355,3.921,7.706-1.854,10.413c-4.063,1.905-8.674,2.605-12.874,4.266
			c-2.36,0.933-5.123,2.419-4.928,5.487c0.2,3.148,2.686,3.966,5.634,4.105c1.588,0.075,3.793,0.562,4.592,1.674
			c4.639,6.456,10.962,2.552,16.531,2.981c2.894,0.223,2.433-2.494,2.652-4.083c10.341-75.06,75.181-116.518,134.49-122.8
			c13.303-1.409,26.424-3.829,39.917-2.984c11.864,0.743,23.223,3.13,33.769,8.607c12.712,6.601,25.126,13.781,37.914,20.226
			c33.165,16.717,49.675,44.894,55.761,80.288c1.375,7.996,1.911,16.134,3.09,24.168c0.324,2.207,0.909,6.597,2.116,6.146
			c4.625-1.729,8.72,3.759,12.779,0.642c3.488-2.679,6.977-4.57,11.397-5.471c4.374-0.892,5.083-3.991,1.671-7.265
			c-3.298-3.166-7.834-3.307-11.903-4.554c-3.775-1.157-7.877-2.647-8.584-6.717c-0.696-4.002,3.325-5.803,6.204-7.934
			c7.651-5.664,14.297-12.624,22.923-17.047c9.213-4.723,12.592-2.938,13.188,7.406c0.368,6.378-0.282,12.836,1.39,20.276
			c6.587-8.562,10.147-17.432,11.516-26.95c0.73-5.078,2.867-5.957,6.294-3.553c3.49,2.449,10.344,1.514,9.64,8.661
			c5.136,0.55,8.488,3.624,10.916,7.877c1.706,2.99,4.739,5.85,1.495,9.636c-1.253,1.462-0.049,1.873,0.973,2.493
			c0.589,0.358,1.097,0.94,1.484,1.526c5.374,8.14,2.81,14.074-6.981,15.753c6.531,5.353,3.824,12.338,3.162,18.737
			c-0.347,3.354-3.204,2.367-5.658,1.52c-5.32-1.835-10.142-5.471-16.939-4.825c5.493,3.816,10.834,6.404,16.564,8.206
			c5.14,1.616,5.743,4.401,2.414,8.462c-8.969,10.942-20.273,18.843-32.885,24.905c-5.276,2.536-9.038-0.175-8.57-5.928
			c0.641-7.886,0.408-15.723-0.445-24.458c-6.856,7.412-14.201,12.638-24.448,11.632c-1.113-0.109-2.463,1.964-3.668,3.064
			c-4.086,3.729-9.234,6.306-14.35,5.146c-5.543-1.257-6.474,0.887-7.864,5.224c-15.991,49.911-49.344,81.098-100.705,92.535
			c-3.553,0.791-5.671,1.917-5.352,5.951c0.128,1.622-0.532,3.292-0.704,4.953c-1.593,15.39-0.01,17.632,14.832,20.37
			c12.622,2.329,24.705,5.774,34.006,15.382c6.244,6.451,5.429,13.104-2.549,17.325c-4.609,2.438-9.637,4.394-15.03,4.223
			c-20.794-0.659-41.469-2.409-61.583-8.126c-2.046-0.581-3.569-0.426-5.416,0.173c-3.609,1.17-7.291,2.116-10.942,3.155
			c-5.862-6.545,2.708-6.467,4.061-6.522c7.226-0.297,7.563-4.488,7.569-10.074c0.005-4.517-1.662-9.524,2.727-15.507
			c0,4.076-0.002,6.181,0,8.286c0.003,2.381-0.15,4.776,0.045,7.142c0.485,5.877,4.826,9.152,10.31,7.936
			c4.127,0.568,8.254,1.136,12.381,1.705c13.76,3.352,27.737,4.586,41.866,4.138c2.896-0.092,5.592-1.176,8.094-2.672
			c4.488-2.684,5.689-5.467,0.844-9.199c-4.81-3.706-10.054-6.404-15.803-8.215c-7.798-2.457-15.87-3.504-23.951-4.288
			c-6.915-0.671-10.44-3.759-10.007-11.055c0.368-6.2,0.172-12.431,0.351-18.645c0.258-8.976,2.113-11.193,10.959-12.975
			c56.556-11.393,90.959-51.888,100.742-108.611c0.83-4.812-0.478-6.745-5.302-7.923c-63.299-15.468-107.988-52.906-133.097-113.307
			c-1.356-3.262-1.726-6.981-4.332-9.687c-4.443,0.916-6.02,4.955-7.088,8.215c-2.601,7.941-8.777,13.53-12.421,20.722
			c-0.939,1.852-3.258,3.737-5.154,2.029c-1.838-1.655,0.832-3.098,1.728-4.631c5.013-8.578,10.08-17.137,14.652-25.949
			c0.856-1.649,4.616-4.995-0.602-6.691c-1.818-1.067,0.235-6.003-4.326-4.329c-2.641-1.608-3.879-4.946-7.14-5.789
			c-4.589-2.583-7.925,1.109-11.74,2.363c-2.227,0.732-4.858,3.525-5.782-1.324c1.221-1.722,0.996-2.407-1.239-1.809
			c-36.601,9.783-65.959,29.637-86.306,62.032c-2.24,3.854-4.888,7.534-6.623,11.603c-2.459,5.769-6.609,11.047-5.994,17.865
			c0.196,2.012-2.409,3.715-0.753,5.873c2.403,0.135,1.818-3.787,4.5-3.378c0.134,3.153-4.013,5.415-1.265,8.717
			c0.227,0.915,0.699,1.506,1.755,1.322c-1.259,3.337-2.676,6.664-0.683,10.218c0.727,0.155,1.455,0.31,2.182,0.465
			c-0.783,0.986-3.165,1.39-2.061,3.03c1.489,2.213,3.924,2.188,6.273,1.045c0.019,0.644,0.038,1.288,0.056,1.932
			c-2.58,1.553-2.768,2.362,0.605,1.733c1.542-0.288,3.548-1.931,4.342,0.171c0.786,2.08-1.386,3.439-3.132,4.125
			c-6.214,2.44-12.729,3.708-19.301,4.832c-3.491,0.597-5.537,0.293-5.53-3.878c0.007-3.603-2.714-7.228-5.469-5.943
			c-7.434,3.467-13.427,2.32-19.247-2.763l-0.056-0.038c-0.491-3.217-2.945-3.476-5.366-3.244c-5.806,0.555-7.354-2.301-7.256-7.625
			c0.068-3.727,0.928-6.931,2.89-9.965c0.618-0.711,1.136-1.552,1.868-2.114c9.521-7.311,9.544-7.373,0.282-16.157
			c-1.364-1.293-2.917-2.392-4.421-3.531c-3.29-2.493-4.878-1.982-5.025,2.473c-0.17,5.143,1.025,10.382-0.867,15.428
			c-2.67,5.452-2.673,5.441-10.22,7.279c-1.475,0.359-2.425,1.381-2.999,2.764c-3.754,11.308-0.321,18.401,9.583,19.804
			c2.325,0.352,2.57-3.45,5.839-2.535c0.148,6.908,0.566,13.715,7.817,18.073c3.55,2.134,6.793,2.121,10.143,1.602
			c3.749-0.581,2.027-4.18,2.49-6.527c0.228-1.152,0.203-2.434,2.092-2.155c0.215,0.594,0.604,1.231,0.664,1.898
			c1.225,13.559,6.786,17.133,19.006,12.151c2.965-1.209,4.135,0.221,3.98,2.905c-0.592,10.25,4.341,18.819,8.637,27.435
			C122.814,312.918,123.347,316.71,120.307,320.825z M25.414,221.643c3.696,2.292,7.392,4.583,12.737,7.897
			c-2.38-5.249-4.947-7.807-7.653-10.264c-1.627-1.954-3.231-3.928-4.89-5.854c-1.276-1.482-2.691-3.055-4.262-0.375
			c-1.03,1.757-3.953,3.467-0.675,5.729C22.188,219.823,23.829,220.693,25.414,221.643z M483.937,234.408
			c3-1.732,5.992-3.48,9.003-5.193c3.492-1.987,1.77-4.063,0.232-6.279c-2.109-3.039-3.508-0.848-4.847,0.642
			c-2.18,2.427-4.202,4.995-6.291,7.503c-2.215,2.297-4.429,4.593-7.055,7.316C479.167,238.732,481.363,236.142,483.937,234.408z
			 M34.563,235.584c-4.205-3.849-9.831-4.342-14.826-6.336c-2.342-0.935-3.505-0.399-4.165,2.026c-0.627,2.301-0.12,3.7,2.344,4.145
			c3.504,0.633,7.003,1.289,10.504,1.935c3.635,1.36,7.323,2.179,11.661,1.704C38.617,236.305,36.848,235.492,34.563,235.584z
			 M336.839,237.272c9.323,6.434,18.789,12.595,29.887,15.635c6.53,0.154,12.408,2.253,17.965,5.636
			c2.955,1.799,5.644,5.05,9.835,2.955c0.399-0.447,0.799-0.895,1.198-1.342c2.226-1.479,0.614-3.178-0.262-4.054
			c-2.493-2.494-0.479-4.114,0.695-5.982c-0.055-0.92-0.111-1.841-0.166-2.761c0.109-3.892,0.219-7.783,0.328-11.675
			c2.951-1.674,1.392-4.39,1.073-6.405c-5.272-33.275-19.833-60.505-50.714-76.928c-16.181-8.605-31.722-18.481-49.083-24.743
			c-3.339-1.674-6.978-2.109-10.617-2.463c-0.533-0.052-2.13-0.569-1.418,1.096c0.225,0.526,1.087,0.781,1.657,1.16
			c2.237,4.614,9.324,3.562,11.15,10.229c-4.369-2.947-8.423-4.485-12.701-5.387c-1.322-1.384-3-3.173-4.69-1.309
			c-3.521,3.883,3.36,5.526,2.462,9.14c-3.089,0.623-3.877-2.277-5.686-3.469c-1.562-1.028-2.016-0.096-2.409,1.144
			c-4.633,2.802,1.953,6.19-0.581,9.241c-2.945-1.356-2.596-4.633-4.051-6.769c-0.671-0.985,0.881-4.437-2.589-3.015
			c-2.688-1.459-1.974,0.577-1.874,1.864c0.659,8.481,3.675,16.182,7.828,23.502C286.626,194.504,308.018,219.009,336.839,237.272z
			 M463.621,282.986c0.946,3.674-2.495,10.232,1.387,11.843c4.397,1.824,8.835-3.451,12.635-6.541
			c9.49-7.718,9.376-8.027-1.6-13.427C463.583,268.732,463.583,268.732,463.621,282.986z M50.61,272.963
			c-1.329-3.842,2.781-8.818-0.379-11.443c-3.587-2.979-7.317,1.714-10.803,3.21c-12.318,5.288-12.411,6.349-1.932,14.44
			c3.513,2.712,7.732,7.457,11.552,5.718C52.78,283.191,49.588,277.118,50.61,272.963z M450.281,228.729
			c0-2.377,0.032-4.755-0.01-7.131c-0.034-1.908,0.106-4.271-1.609-5.222c-1.886-1.046-3.55,0.886-4.955,2.005
			c-2.406,1.917-4.625,4.084-6.807,6.262c-6.517,6.509-6.495,6.531,1.514,11.01C450.388,242.35,450.388,242.35,450.281,228.729z
			 M438.655,259.393c-6.606,0.109-10.292,4.099-9.612,8.935c0.56,3.983-1.55,11.014,5.337,11.958
			c4.91,0.673,12.019-7.432,11.878-12.498C446.112,262.544,443.893,259.059,438.655,259.393z M465.513,252.85
			c-0.028-3.385,0.248-7.412-4.209-7.866c-4.51-0.46-9.036,0.386-12.233,4.415c-3.314,4.176,0.072,6.397,2.367,9.065
			c0.755,0.877,1.183,2.072,1.621,3.177c2.284,5.765,5.664,4.023,8.74,1.028C464.453,260.086,465.509,256.597,465.513,252.85z
			 M422.214,277.125c0.053-2.658-0.308-5.237-1.484-7.654c-1.303-2.676-3.008-5.294-6.339-4.711
			c-3.253,0.569-4.363,3.204-4.315,6.465c0.052,3.573-0.315,7.152-0.268,10.725c0.03,2.3-2.74,5.479,1.204,6.709
			c3.174,0.989,6.093-0.547,8.343-2.944C421.604,283.319,422.309,280.336,422.214,277.125z M474.606,247.717
			c0.146,0.629,0.293,1.257,0.439,1.886c7.222-1.468,14.453-2.897,21.662-4.427c2.356-0.5,2.824-2.003,2.074-4.268
			c-0.782-2.36-2.037-2.79-4.273-1.97C487.681,241.44,480.417,242.94,474.606,247.717z M467.393,238.265
			c6.889-6.943,10.89-15.592,14.187-24.627c0.656-1.798-0.705-2.57-2.146-2.991c-1.531-0.447-2.236,0.707-2.443,1.835
			C475.312,221.623,470.433,229.478,467.393,238.265z M46.887,228.163c-3.227-8.56-7.766-16.35-9.578-25.238
			c-0.261-1.282-1.013-2.22-2.44-1.948c-1.696,0.323-2.453,1.552-1.871,3.152C36.215,212.977,40.03,221.501,46.887,228.163z
			 M41.606,247.188c-7.667-2.985-13.637-1.806-19.375-0.306c-2.109,0.551-2.184,3.579-1.561,5.659
			c0.771,2.573,2.592,1.086,4.026,0.589C29.74,251.381,34.77,249.594,41.606,247.188z M474.019,257.592
			c6.994,2.317,13.034,4.317,19.267,6.381C493.566,255.52,483.95,252.355,474.019,257.592z"/>
		<path class="st1" d="M50.283,235.697c0.574-1.384,1.524-2.405,2.999-2.764c7.547-1.838,7.55-1.826,10.219-7.279
			c0.325,6.314,4.657,4.244,8.164,3.901c-1.962,3.034-2.822,6.238-2.89,9.965c-0.097,5.324,1.45,8.18,7.256,7.625
			c2.421-0.231,4.874,0.027,5.367,3.244c-3.86-0.497-7.931-2.412-11.117,1.647c-3.48,4.701-2.995,8.993,1.33,12.888
			c1.806,3.044,4.572,4.74,7.907,5.652c1.751,0.479,3.431,0.686,3.826-1.695c1.046-6.314,4.772-12.925-1.891-18.454
			c5.819,5.083,11.813,6.23,19.247,2.763c2.755-1.285,5.476,2.34,5.469,5.943c-0.008,4.171,2.039,4.475,5.53,3.878
			c6.572-1.124,13.087-2.392,19.301-4.832c1.746-0.686,3.918-2.045,3.132-4.125c-0.794-2.102-2.799-0.459-4.342-0.171
			c-3.373,0.629-3.185-0.18-0.605-1.733c30.297-11.172,58.777-25.11,79.876-50.834c10.869-13.252,23.21-25.363,30.855-41.03
			c3.343-4.594,6.23-9.4,7.119-15.145c1.06-0.655,1.268-1.701,1.295-2.829c5.218,1.696,1.458,5.042,0.602,6.691
			c-4.572,8.812-9.64,17.371-14.652,25.949c-0.896,1.534-3.566,2.976-1.728,4.631c1.896,1.708,4.215-0.177,5.154-2.029
			c3.644-7.192,9.82-12.781,12.421-20.722c1.068-3.26,2.644-7.299,7.09-8.219c-10.215,23.646-26.807,42.778-43.902,61.491
			c-7.874,8.619-15.739,17.29-26.01,23.387c-22.063,13.097-45.02,24.168-69.748,31.204c-4.401,1.252-5.582,2.926-4.863,7.406
			c7.35,45.751,28.884,81.794,70.568,104.306c14.826,8.007,30.784,12.501,47.159,15.82c3.742,3.417,10.063-0.771,13.187,4.47
			l-0.02-0.176c-0.568,8.188,0.814,16.199,2.196,24.21c0.088,6.02,0.625,11.376-8.219,12.632
			c-12.992,1.844-25.552,5.96-37.269,12.184c-2.543,1.351-5.609,2.596-5.008,6.127c0.546,3.211,3.847,2.378,5.966,2.695
			c18.853,2.822,37.042-1.163,55.189-5.599c3.361-0.822,2.812-2.725,2.541-5.326c-1.458-14.013-2.343-28.071-1.938-42.171
			c0.083-2.888-0.728-6.744,4.252-6.595c4.537,0.136,4.328,3.318,4.348,6.596c0.068,10.953-0.919,21.949,1.16,32.831
			c-0.138,6.437-0.852,13.162,7.664,15.249c-5.485,1.216-9.825-2.059-10.31-7.936c-0.195-2.366-0.042-4.76-0.045-7.142
			c-0.002-2.105,0-4.21,0-8.286c-4.389,5.983-2.723,10.99-2.727,15.507c-0.006,5.585-0.343,9.777-7.569,10.074
			c-1.353,0.056-9.923-0.023-4.061,6.522c-3.912,1.956-8.152,1.549-12.314,1.703c-2.475-2.481-5.376-3.295-8.937-3.206
			c-9.48,0.238-18.969,0.079-28.455,0.082c-2.824,0.001-5.608,0.439-6.729-3.451c-1.056-3.663,0.31-6.07,3.078-7.825
			c3.366-2.134,6.865-4.133,10.505-5.736c3.043-1.341,3.997-3.07,2.59-6.065c0,0-0.051,0.02-0.051,0.02
			c4.164,3.264,8.196,3.373,13.155,1.023c4.416-2.092,9.523-3.065,14.433-3.691c6.064-0.773,7.779-3.923,6.541-9.353
			c-0.949-4.166-2.527-8.179-2.459-12.569c0.056-3.572,0.756-7.547-0.539-10.624c-1.701-4.04-6.48-1.119-9.691-2.317
			c-2.012-0.751-4.189-1.155-6.071-2.138c-5.589-2.92-11.132-3.54-16.813-0.385c-4.764,0.012-8.833-2.008-12.781-4.378
			c-3.004-5.834-9.047-7.879-13.991-11.334c-13.283-9.281-29.978-14.245-37.687-30.641c-1.881-4-6.573-5.521-11.267-5.398
			c-1.444-1.497-3.219-2.782-3.282-5.157c1.19-3.912,0.826-7.877-0.537-11.548c-1.419-3.82-3.761-4.994-6.226-0.523
			c-1.089-1.022-1.968-2.152-1.921-3.755c3.04-4.115,2.507-7.908,0.228-12.478c-4.297-8.617-9.23-17.186-8.637-27.435
			c0.155-2.684-1.015-4.113-3.98-2.905c-12.22,4.982-17.781,1.408-19.006-12.151c-0.06-0.667-0.449-1.304-0.664-1.898
			c-1.889-0.279-1.864,1.003-2.092,2.155c-0.464,2.348,1.259,5.946-2.49,6.527c-3.35,0.519-6.593,0.531-10.143-1.602
			c-7.252-4.358-7.67-11.166-7.817-18.073c-3.27-0.915-3.514,2.887-5.839,2.536c1.028-2.883,1.915-5.789,3.973-8.227
			c4.001-4.741,3.229-7.927-2.436-10.544C57.838,235.084,54.09,234.963,50.283,235.697z M104.563,269.291c-0.062,0-0.123,0-0.185,0
			c0-2.854,0.011-5.708-0.003-8.562c-0.015-3.008-1.574-5.062-4.363-5.799c-2.787-0.736-4.521,1.344-5.645,3.386
			c-2.773,5.039-3.546,10.35-0.679,15.666c2.01,3.726,5.412,5.87,9.437,4.774c4.216-1.148,0.864-4.852,1.415-7.33
			C104.691,270.746,104.563,270.004,104.563,269.291z"/>
		<path class="st0" d="M207.999,393.561c5.681-3.155,11.225-2.536,16.813,0.385c1.882,0.983,4.059,1.388,6.071,2.138
			c3.211,1.198,7.99-1.723,9.691,2.317c1.295,3.077,0.594,7.052,0.539,10.624c-0.068,4.39,1.51,8.403,2.459,12.569
			c1.237,5.431-0.477,8.581-6.541,9.353c-4.909,0.626-10.017,1.598-14.433,3.691c-4.959,2.35-8.99,2.241-13.155-1.023
			c7.357-3.51,15.385-4.828,23.163-6.912c3.378-0.905,4.53-2.212,4.462-5.82c-0.324-17.318-0.237-17.339-16.346-22.779
			C216.457,396.664,212.239,395.08,207.999,393.561z"/>
		<path class="st0" d="M209.495,433.596c1.407,2.995,0.454,4.724-2.59,6.065c-3.641,1.604-7.14,3.602-10.505,5.736
			c-2.769,1.755-4.134,4.162-3.078,7.825c1.121,3.89,3.904,3.452,6.729,3.451c9.486-0.003,18.975,0.156,28.455-0.082
			c3.561-0.089,6.462,0.725,8.937,3.206c-13.252,3.935-26.736,3.757-40.231,1.918c-5.63-0.767-9.856-4.232-10.86-9.901
			c-1.007-5.68,2.686-9.335,7.423-11.784C198.815,437.423,203.717,434.423,209.495,433.596z"/>
		<path class="st0" d="M132.274,341.809c4.694-0.123,9.386,1.398,11.267,5.398c7.709,16.396,24.404,21.361,37.687,30.641
			c4.944,3.455,10.987,5.5,13.991,11.334C169.049,380.285,146.861,366.097,132.274,341.809z"/>
		<path class="st0" d="M122.229,324.58c2.465-4.471,4.807-3.297,6.226,0.523c1.363,3.671,1.727,7.636,0.537,11.548
			C125.869,333.115,123.887,328.938,122.229,324.58z"/>
		<path class="st2" d="M266.805,434.105c-2.078-10.882-1.091-21.878-1.16-32.831c-0.02-3.277,0.188-6.46-4.348-6.596
			c-4.98-0.149-4.169,3.706-4.252,6.595c-0.405,14.1,0.48,28.158,1.938,42.171c0.271,2.601,0.819,4.504-2.541,5.326
			c-18.147,4.436-36.336,8.421-55.189,5.599c-2.118-0.317-5.42,0.516-5.966-2.695c-0.6-3.531,2.465-4.776,5.008-6.127
			c11.717-6.223,24.277-10.339,37.269-12.184c8.844-1.256,8.306-6.612,8.219-12.632c2.16-8.333,0.203-16.291-2.196-24.209
			c0,0,0.02,0.176,0.022,0.176c0.367-3.529-1.769-4.543-4.727-4.58c-2.82-0.036-5.641,0.068-8.462,0.11
			c-16.375-3.318-32.333-7.813-47.159-15.82c-41.684-22.511-63.217-58.554-70.568-104.306c-0.72-4.48,0.462-6.154,4.863-7.406
			c24.728-7.036,47.685-18.107,69.748-31.204c10.271-6.097,18.136-14.768,26.01-23.387c17.096-18.713,33.688-37.845,43.902-61.491
			c2.603,2.71,2.973,6.428,4.33,9.69c25.11,60.401,69.798,97.839,133.097,113.307c4.824,1.179,6.132,3.112,5.302,7.923
			c-9.783,56.723-44.186,97.218-100.742,108.611c-8.846,1.782-10.701,3.999-10.959,12.975c-0.179,6.214,0.018,12.445-0.351,18.645
			c-0.433,7.296,3.092,10.384,10.007,11.055c8.081,0.784,16.153,1.831,23.951,4.288c5.749,1.811,10.993,4.509,15.803,8.215
			c4.845,3.733,3.644,6.515-0.844,9.199c-2.502,1.496-5.198,2.58-8.094,2.672c-14.129,0.448-28.106-0.786-41.866-4.138
			c0.525-0.327,1.049-0.653,1.574-0.98c-0.35-0.193-0.679-0.479-1.054-0.566c-17.692-4.12-17.693-4.118-20.043-20.126
			C267.153,430.96,266.979,432.533,266.805,434.105z M266.033,255.6c6.846,3.893,12.386,2.144,15.157-5.133
			c2.348-6.17,2.409-12.558,0.125-18.787c-3.449-9.405-8.633-10.758-16.644-4.527C257.335,235.08,258.01,249.173,266.033,255.6z
			 M311.358,373.344c5.826-6.759-2.051-9.685-4.352-13.705c-3.103-5.423-7.439-4.664-9.638,1.382
			c-1.948,5.356-5.779,7.985-10.807,9.422c-2.248,0.643-4.851,1.522-6.436-1.167c-1.618-2.743-1.28-5.476,0.864-7.923
			c2.119-2.418,5.063-3.522,7.806-4.946c1.884-0.978,3.18-2.325,2.214-4.556c-0.98-2.261-2.966-2.027-4.897-1.514
			c-2.06,0.548-4.068,1.383-6.159,1.698c-2.301,0.347-5.298,0.969-6.146-1.993c-0.816-2.851,1.154-5.092,3.71-6.233
			c4.271-1.906,8.742-2.339,13.25-0.713c2.28,0.822,4.995,2.021,6.128-1.019c1.33-3.567-1.996-4.131-4.366-5.167
			c-2.175-0.951-4.516-1.782-6.328-3.235c-2.419-1.939-4.743-4.324-2.422-7.904c2.183-3.368,4.926-5.198,9.028-3.285
			c3.735,1.742,6.933,3.958,9.064,7.744c4.677,8.308,5.67,8.189,11.134-0.04c1.43-2.153,3.261-4.114,5.197-5.837
			c1.921-1.709,4.362-2.062,6.623-0.554c2.16,1.44,1.839,3.629,1.355,5.821c-1.223,5.538-5.219,8.171-10.09,10.162
			c-6.023,2.462-6.192,4.056-1.009,8.025c3.608,2.763,7.424,5.156,8.02,10.376c0.277,2.429,2.429,3.69,4.823,3.033
			c2.615-0.717,2.745-2.953,2.223-5.261c-0.642-2.84-1.645-5.612-3.73-7.618c-2.9-2.789-2.424-4.402,0.572-7.041
			c8.251-7.267,8.835-12.705,2.858-21.272c-1.127-1.615-1.565-2.766-0.35-4.383c3.864-5.144,4.535-11.437,6.177-17.379
			c0.266,0.743,1.296,1.84,1.281,1.64c-0.425-5.559,2.617-11.498-1.598-16.658c-4.525-2.812-7.501-2.263-6.831,3.765
			c0.88,7.913-2.194,14.993-4.155,22.286c-2.249,8.363-11.003,9.927-16.772,14.457c-2.444,1.919-5.405-3.437-8.392-5.129
			c-9.239-5.236-18.657-3.277-23.05,4.604c-2.926,5.249,3.63,11.348,0.932,13.424c-4.087,3.146-8.902,5.106-10.854,10.383
			c-0.568,1.537-0.668,3.246-0.983,4.877c-1.704,4.891-5.776,5.397-10.146,5.733c-8.764,0.674-17.391-0.999-26.097-1.243
			c-9.89-1.111-3.862-12.544-10.304-16.011c-0.654-0.352-0.704-2.153-0.692-3.278c0.006-0.568,0.833-1.094,1.196-1.695
			c4.834-8.006,1.412-14.988-7.882-15.249c-4.932-0.138-7.637-0.452-7.587-6.773c0.062-7.915-5.897-11.24-13.458-8.719
			c-3.944,1.315-6.858,4.26-10.45,6.898c-5.306-8.858-7.897-18.503-10.103-28.28c-0.741-3.283-0.917-7.317-5.836-6.131
			c-5.02,1.21-2.9,5.252-2.436,8.29c1.045,6.847,4.832,12.996,5.269,20.023c0.884,4.634,0.435,8.4-5.455,9.027
			c-0.635,0.068-1.148,1.287-1.717,1.972c-7.706,6.923-7.955,13.225-0.82,18.944c3.788,3.036,10.093,3.22,12.256,6.549
			c2.301,3.543-3.239,8.114-3.666,12.819c-0.171,1.884,0.044,3.361,1.758,4.162c1.614,0.754,3.759,0.785,4.346-1.012
			c2.303-7.045,7.959-13.233,5.736-21.479c0.975-1.206,1.949-2.412,2.924-3.618c2.128-1.805,1.681-4.226,1.654-6.594
			c-0.063-5.565,2.097-10.235,6.215-13.892c1.348-1.197,3.071-2.66,5.093-1.65c1.821,0.911,1.245,2.917,1.258,4.518
			c0.039,4.9-0.933,9.475-4.537,13.136c-1.763,1.791-3.348,3.666-0.916,6.069c2.66,2.628,4.234,0.04,5.927-1.388
			c3.121-2.633,6.333-5.073,10.388-6.072c2.535-0.625,5.509-1.732,6.652,1.749c1.069,3.256-1.792,4.55-4.069,5.814
			c-1.024,0.569-2.252,0.762-3.365,1.183c-3.12,1.178-8.577,0.65-7.96,5.21c0.634,4.681,5.505,1.46,8.455,1.997
			c4.185,0.762,8.25,2.177,8.513,7.079c0.262,4.887-3.845,6.034-7.697,6.857c-3.573,0.764-6.579-0.247-8.907-3.146
			c-1.303-1.623-2.984-2.479-5.024-1.634c-2.295,0.951-2.011,3.082-1.67,4.915c0.637,3.42,0.487,6.567-1.652,9.515
			c-1.363,1.879-0.847,3.649,1.1,4.853c1.749,1.082,3.152,0.05,4.523-0.968c1.881-1.396,1.891-3.759,2.935-5.585
			c6.183-1.785,13.065-3.575,18.748-1.268c14.929,6.06,29.969,6.877,45.51,4.265c3.726-0.626,6.319,0.111,7.544,4.299
			c0.874,2.99,2.727,5.68,6.601,5.479c8.361,1.99,15.377-1.193,22.042-5.73c2.47-0.107,4.494,0.84,6.61,2.115
			C307.586,374.886,309.959,376.432,311.358,373.344z M242.65,295.951c11.614-0.125,20.403-8.287,20.188-18.747
			c-0.199-9.673-7.298-16.277-17.25-16.045c-10.44,0.243-18.898,8.514-18.918,18.502
			C226.649,289.389,233.186,296.053,242.65,295.951z M235.585,241.229c0-0.951,0.049-1.904-0.008-2.851
			c-0.5-8.435-4.445-14.661-9.434-14.922c-6.537-0.342-10.382,4.462-11.512,14.433c-0.133,1.176-0.169,2.372-0.145,3.556
			c0.179,8.954,5.024,16.673,10.38,16.582C231.295,257.919,235.537,251.287,235.585,241.229z M283.632,272.791
			c-0.533-1.171-1.362-2.322-2.92-2.308c-2.116,0.018-2.723,1.55-2.456,3.313c0.235,1.556,1.386,2.399,3.001,2.069
			C282.73,275.564,283.668,274.642,283.632,272.791z M290.428,285.713c-0.052-1.618-0.911-2.587-2.539-2.859
			c-1.556-0.26-3.03,0.094-3.436,1.718c-0.535,2.138,1.112,2.998,2.808,3.32C288.822,288.188,290.011,287.435,290.428,285.713z
			 M302.877,290.091c0.187-1.769-0.892-2.711-2.336-2.939c-1.757-0.278-3.298,0.308-3.377,2.475
			c-0.058,1.579,0.868,2.848,2.275,3.129C301.322,293.13,302.376,291.808,302.877,290.091z M290.089,297.3
			c0.07-1.747-0.893-2.748-2.437-3.021c-1.554-0.274-3.023,0.382-3.293,1.987c-0.33,1.963,1.072,3.127,2.843,3.431
			C288.881,299.986,289.774,298.861,290.089,297.3z M303.425,274.178c-1.212,0.403-2.541,0.945-2.135,2.82
			c0.345,1.595,1.612,2.394,3.083,2.494c1.596,0.109,2.785-0.812,2.73-2.507C307.035,274.894,305.469,274.322,303.425,274.178z
			 M197.223,287.319c-1.445,0.173-2.335,0.998-2.239,2.257c0.133,1.754,1.186,3.116,3.049,3.178c1.54,0.051,2.721-0.951,2.509-2.586
			C200.303,288.342,198.862,287.535,197.223,287.319z M295.516,268.619c-1.493-0.093-2.515,0.597-2.699,1.848
			c-0.238,1.619,0.889,2.727,2.336,3.049c1.552,0.345,2.878-0.406,2.91-2.148C298.091,269.756,296.933,268.907,295.516,268.619z
			 M280.2,289.955c-0.336-1.18-1.312-2.101-2.815-2.213c-1.531-0.114-2.888,0.55-2.901,2.275c-0.012,1.578,1.152,2.583,2.653,2.788
			C278.836,293.037,279.586,291.803,280.2,289.955z M190.297,283.114c1.213-0.478,2.065-1.286,1.71-2.664
			c-0.407-1.579-1.629-2.349-3.204-2.14c-1.215,0.162-2.379,0.77-1.7,2.354C187.685,282.025,188.687,283.009,190.297,283.114z
			 M197.366,272.554c1.597,0.305,2.153-0.741,2.201-1.978c0.062-1.604-0.899-2.652-2.487-2.833
			c-1.324-0.151-2.414,0.633-2.409,1.923C194.678,271.234,196.01,272.007,197.366,272.554z M213.245,288.385
			c-0.046-1.693-1.219-2.279-2.679-2.472c-1.277-0.169-2.416,0.215-2.514,1.67c-0.113,1.673,1.02,2.471,2.549,2.658
			C211.943,290.405,212.748,289.631,213.245,288.385z M208.088,279.119c-0.362-1.688-1.561-2.324-3.071-2.111
			c-1.239,0.174-2.092,1.173-1.915,2.444c0.16,1.151,0.865,2.191,2.27,2.189C207.017,281.64,207.86,280.683,208.088,279.119z"/>
		<path class="st3" d="M395.724,260.156c-0.399,0.447-0.799,0.895-1.195,1.343c-14.714-7.416-28.101-16.93-41.572-26.319
			c-28.718-20.014-49.693-46.843-67.457-76.509c0.293-2.827-1.689-4.865-2.489-7.307c-0.803-2.451-4.108-4.416-1.669-7.584
			c5.03,4.616,10.158,9.13,15.072,13.867c12.497,12.047,24.249,24.868,38.192,35.387c5.493,4.143,10.047,9.402,14.249,14.891
			c6.985,11.87,17.547,20.319,27.802,29.061C383.907,243.974,389.373,252.429,395.724,260.156z"/>
		<path class="st4" d="M297.594,127.608c17.362,6.263,32.903,16.138,49.084,24.744c30.881,16.423,45.441,43.653,50.714,76.928
			c0.319,2.015,1.879,4.732-1.074,6.403c-3.135-10.168-8.945-18.88-15.159-27.307c-23.017-31.214-50.861-57.222-84.065-77.388
			C296.753,129.785,296.017,128.525,297.594,127.608z"/>
		<path class="st5" d="M239.915,160.289c-7.645,15.665-19.986,27.776-30.855,41.028c-21.099,25.724-49.579,39.662-79.876,50.834
			c-0.019-0.644-0.038-1.288-0.052-1.935c12.049-5.973,22.128-14.619,32.306-23.23c22.364-18.92,42.564-40.089,63.581-60.41
			c7.149-1.268,9.254-9.141,15.593-11.913C240.365,156.663,240.14,158.476,239.915,160.289z"/>
		<path class="st6" d="M395.724,260.156c-6.351-7.727-11.817-16.182-19.069-23.171c-8.283-10.63-18.046-19.84-27.8-29.06
			c-4.202-5.49-8.756-10.748-14.249-14.891c-13.943-10.518-25.695-23.34-38.192-35.387c-4.914-4.737-10.042-9.251-15.072-13.867
			c-1.033-2.842-2.901-4.853-5.804-5.835l-0.196-0.197c0.392-1.24,0.847-2.173,2.408-1.145c1.81,1.191,2.597,4.092,5.686,3.469
			c0.898-3.614-5.983-5.257-2.462-9.14c1.69-1.864,3.368-0.075,4.69,1.309c-0.563,0.052-1.125,0.103-1.688,0.155
			c-0.933,0.206-2.784-0.045-1.315,1.706c1.745,2.081,3.801,3.901,5.722,5.834c4.799,4.962,9.367,10.174,14.436,14.843
			c27.369,25.214,54.942,50.211,79.64,78.144c4.566,5.732,9.131,11.464,13.697,17.196c-1.173,1.867-3.187,3.487-0.694,5.981
			C396.338,256.978,397.951,258.677,395.724,260.156z"/>
		<path class="st7" d="M225.02,166.576c-21.017,20.321-41.217,41.49-63.581,60.41c-10.178,8.611-20.257,17.257-32.306,23.23
			c-2.354,1.145-4.788,1.171-6.278-1.042c-1.104-1.64,1.278-2.044,2.061-3.03c2.982-2.029,5.964-4.059,8.946-6.088
			c2.925-1.907,6.041-3.577,8.744-5.76c22.843-18.445,44.866-37.776,64.081-60.095c3.999-3.905,7.997-7.81,11.996-11.714
			c1.318-1.225,2.636-2.451,3.954-3.676c6.599-6.077,14.445-10.957,18.59-19.387c0.926-0.48,1.851-0.96,2.777-1.44
			c4.561-1.674,2.508,3.262,4.326,4.329c-0.026,1.128-0.235,2.174-1.295,2.829C239.059,151.632,232.159,159.227,225.02,166.576z"/>
		<path class="st8" d="M285.501,158.671c17.764,29.666,38.739,56.495,67.457,76.509c13.471,9.388,26.858,18.902,41.572,26.319
			c-4.194,2.095-6.883-1.157-9.838-2.956c-5.557-3.383-11.434-5.482-17.966-5.636c-9.724-6.977-19.447-13.955-29.17-20.932
			c-4.564-4.189-9.258-8.247-13.669-12.591c-18.138-17.862-32.41-38.721-46.193-59.949c-3.27-7.376-8.493-13.91-9.573-22.229
			c3.47-1.424,1.919,2.029,2.589,3.014c1.454,2.136,1.105,5.414,4.051,6.769c2.535-3.051-4.052-6.439,0.581-9.24
			c0,0,0.196,0.198,0.196,0.198C276.924,145.785,281.126,152.269,285.501,158.671z"/>
		<path class="st9" d="M283.978,132.397c0.562-0.052,1.125-0.103,1.688-0.155c4.278,0.902,8.332,2.44,12.701,5.387
			c-1.826-6.667-8.913-5.615-11.15-10.228c3.292,1.196,6.584,2.39,9.876,3.585c33.204,20.167,61.048,46.174,84.065,77.388
			c6.214,8.427,12.024,17.139,15.159,27.307c-0.108,3.894-0.217,7.786-0.326,11.678c-3.959-5.657-5.169-12.767-9.595-18.179
			c-1.484-2.698-2.838-5.478-4.474-8.08c-14.613-23.251-33.781-42.379-54.786-59.736c-10.612-8.769-21.143-17.77-33.8-23.673
			C290.217,135.927,287.098,134.162,283.978,132.397z"/>
		<path class="st10" d="M244.003,137.984c-0.926,0.48-1.851,0.96-2.777,1.44c-10.68,3.539-17.746,12.187-26.359,18.647
			c-4.195,3.105-8.472,6.104-12.571,9.331c-26.233,20.651-50.353,43.506-71.818,69.115c-2.582,3.054-5.163,6.108-7.745,9.161
			c-1.993-3.555-0.576-6.881,0.683-10.218c4.595-7.365,11.413-12.871,16.548-19.785c10.804-10.394,21.268-21.173,32.496-31.087
			c14.982-13.228,30.557-25.784,45.877-38.629c3.427-2.54,6.853-5.08,10.28-7.62c2.899-1.727,6.482-2.525,8.116-5.971l0.13-0.173
			C240.125,133.038,241.363,136.376,244.003,137.984z"/>
		<path class="st9" d="M121.662,234.138c-2.748-3.302,1.399-5.564,1.265-8.717c-2.682-0.409-2.097,3.514-4.5,3.378
			c-1.655-2.158,0.949-3.861,0.753-5.873c4.068-6.261,8.136-12.523,12.204-18.784c1.358-1.658,2.719-3.314,4.075-4.973
			c23.063-28.208,52.082-48.841,83.882-65.934c0.924,4.849,3.555,2.057,5.782,1.324c3.815-1.255,7.151-4.947,11.74-2.363
			c-0.001,0-0.13,0.173-0.13,0.173c-3.234,0.393-5.946,2.04-8.686,3.618c-5.998,1.975-11.278,5.25-16.294,9.002
			c-6.283,3.806-12.747,7.345-18.816,11.466c-23.959,16.271-45.694,34.865-61.127,59.866
			C127.179,221.548,124.672,227.986,121.662,234.138z"/>
		<path class="st11" d="M219.341,133.234c-31.8,17.093-60.819,37.725-83.882,65.934c-1.357,1.659-2.717,3.315-4.077,4.975
			c-1.421-0.054-4.456,2.004-2.683-2.158c1.184-2.78,3.441-5.189,3.097-8.527c20.347-32.395,49.705-52.249,86.306-62.032
			C220.338,130.827,220.562,131.512,219.341,133.234z"/>
		<path class="st12" d="M277.694,159.435c13.783,21.228,28.055,42.087,46.193,59.949c4.411,4.344,9.105,8.402,13.669,12.592
			c-1.188,1.637,4.869,4.254-0.717,5.296c-28.821-18.263-50.213-42.768-62.764-74.701
			C273.98,160.024,274.513,158.203,277.694,159.435z"/>
		<path class="st13" d="M463.621,282.986c-0.038-14.254-0.038-14.254,12.421-8.126c10.977,5.4,11.09,5.709,1.6,13.427
			c-3.8,3.091-8.237,8.366-12.635,6.541C461.126,293.218,464.567,286.66,463.621,282.986z"/>
		<path class="st14" d="M50.61,272.963c-1.022,4.155,2.17,10.228-1.561,11.926c-3.82,1.738-8.039-3.006-11.552-5.718
			c-10.479-8.091-10.386-9.152,1.932-14.44c3.486-1.496,7.215-6.189,10.803-3.21C53.391,264.145,49.281,269.121,50.61,272.963z"/>
		<path class="st15" d="M450.284,228.729c0.104,13.621,0.104,13.621-11.87,6.924c-8.01-4.479-8.032-4.501-1.514-11.01
			c2.181-2.178,4.401-4.345,6.807-6.262c1.405-1.12,3.07-3.051,4.955-2.005c1.716,0.951,1.576,3.314,1.609,5.222
			C450.313,223.974,450.281,226.352,450.284,228.729z"/>
		<path class="st16" d="M71.666,229.555c-3.507,0.342-7.839,2.413-8.164-3.901c1.893-5.046,0.698-10.285,0.868-15.428
			c0.148-4.455,1.735-4.966,5.025-2.473c1.503,1.139,3.057,2.238,4.421,3.531c9.262,8.784,9.239,8.846-0.282,16.157
			C72.802,228.003,72.283,228.844,71.666,229.555z"/>
		<path class="st17" d="M438.655,259.393c5.238-0.333,7.456,3.152,7.602,8.394c0.141,5.066-6.968,13.171-11.878,12.498
			c-6.887-0.944-4.777-7.974-5.337-11.958C428.363,263.491,432.049,259.501,438.655,259.393z"/>
		<path class="st18" d="M465.51,252.853c-0.001,3.744-1.057,7.233-3.711,9.817c-3.076,2.995-6.455,4.736-8.74-1.028
			c-0.438-1.105-0.867-2.3-1.621-3.177c-2.295-2.668-5.681-4.89-2.367-9.065c3.197-4.028,7.723-4.874,12.233-4.415
			C465.761,245.438,465.486,249.465,465.51,252.853z"/>
		<path class="st19" d="M50.283,235.697c3.807-0.734,7.554-0.613,11.119,1.034c5.666,2.617,6.438,5.803,2.436,10.544
			c-2.057,2.438-2.945,5.344-3.973,8.227C49.962,254.098,46.529,247.004,50.283,235.697z"/>
		<path class="st20" d="M422.214,277.124c0.095,3.213-0.61,6.195-2.859,8.591c-2.25,2.397-5.169,3.934-8.343,2.944
			c-3.944-1.229-1.174-4.409-1.204-6.709c-0.047-3.573,0.32-7.152,0.268-10.725c-0.047-3.261,1.062-5.896,4.315-6.465
			c3.33-0.583,5.035,2.035,6.339,4.711C421.906,271.887,422.267,274.467,422.214,277.124z"/>
		<path class="st21" d="M474.606,247.717c5.811-4.778,13.075-6.277,19.902-8.78c2.236-0.82,3.491-0.39,4.273,1.97
			c0.751,2.266,0.282,3.768-2.074,4.268c-7.209,1.53-14.44,2.959-21.662,4.427C474.899,248.974,474.753,248.346,474.606,247.717z"/>
		<path class="st22" d="M467.393,238.265c3.039-8.787,7.918-16.642,9.597-25.783c0.207-1.127,0.912-2.282,2.443-1.835
			c1.441,0.421,2.802,1.193,2.146,2.991C478.283,222.673,474.283,231.322,467.393,238.265z"/>
		<path class="st23" d="M336.839,237.272c5.585-1.042-0.471-3.659,0.717-5.296c9.723,6.977,19.446,13.954,29.17,20.932
			C355.628,249.867,346.163,243.706,336.839,237.272z"/>
		<path class="st24" d="M28.42,237.354c-3.501-0.646-7.001-1.302-10.504-1.935c-2.465-0.445-2.972-1.844-2.344-4.145
			c0.661-2.424,1.823-2.96,4.165-2.026c4.995,1.994,10.622,2.487,14.825,6.336C32.952,237.695,30.478,236.802,28.42,237.354z"/>
		<path class="st25" d="M46.887,228.163c-6.857-6.662-10.672-15.186-13.889-24.034c-0.582-1.6,0.175-2.829,1.871-3.152
			c1.427-0.272,2.179,0.666,2.44,1.948C39.121,211.813,43.66,219.602,46.887,228.163z"/>
		<path class="st26" d="M41.606,247.188c-6.836,2.406-11.867,4.193-16.91,5.942c-1.433,0.497-3.254,1.984-4.026-0.589
			c-0.623-2.079-0.548-5.107,1.561-5.659C27.969,245.382,33.939,244.203,41.606,247.188z"/>
		<path class="st27" d="M474.019,257.592c9.931-5.237,19.548-2.072,19.267,6.381C487.053,261.909,481.013,259.908,474.019,257.592z"
			/>
		<path class="st28" d="M131.796,193.457c0.345,3.338-1.913,5.748-3.097,8.527c-1.773,4.163,1.261,2.104,2.683,2.158
			c-4.067,6.26-8.135,12.521-12.203,18.783c-0.615-6.819,3.535-12.096,5.994-17.865
			C126.908,200.991,129.556,197.311,131.796,193.457z"/>
		<path class="st29" d="M277.694,159.435c-3.18-1.232-3.714,0.59-3.618,3.136c-4.153-7.32-7.169-15.022-7.828-23.503
			c-0.1-1.287-0.814-3.323,1.874-1.863C269.201,145.524,274.423,152.059,277.694,159.435z"/>
		<path class="st30" d="M482.034,231.081c2.089-2.508,4.111-5.076,6.291-7.503c1.339-1.49,2.738-3.681,4.847-0.642
			c1.538,2.216,3.261,4.292-0.232,6.279c-3.011,1.713-6.003,3.461-9.002,5.193C482.669,233.662,482.294,232.405,482.034,231.081z"/>
		<path class="st31" d="M121.662,234.138c3.01-6.152,5.517-12.59,10.148-17.817c-0.202,1.801-0.403,3.602-0.637,5.694
			c3.703-1.446,4.905-5.78,8.791-6.339c-5.135,6.914-11.953,12.42-16.548,19.785C122.361,235.644,121.889,235.053,121.662,234.138z"
			/>
		<path class="st32" d="M25.414,221.643c-1.585-0.95-3.226-1.82-4.743-2.867c-3.278-2.262-0.354-3.972,0.675-5.729
			c1.571-2.68,2.986-1.107,4.262,0.375c1.659,1.926,3.262,3.901,4.888,5.853C30.228,223.122,27.22,221.095,25.414,221.643z"/>
		<path class="st33" d="M266.805,434.105c0.174-1.573,0.349-3.146,0.523-4.719c2.35,16.008,2.351,16.006,20.043,20.126
			c0.375,0.087,0.704,0.373,1.054,0.566c-0.525,0.327-1.05,0.653-1.574,0.98c-4.127-0.568-8.254-1.136-12.381-1.704
			C265.953,447.268,266.666,440.542,266.805,434.105z"/>
		<path class="st34" d="M386.397,229.181c4.426,5.412,5.636,12.521,9.595,18.179c0.055,0.92,0.11,1.84,0.165,2.761
			c-4.566-5.731-9.132-11.463-13.696-17.194c1.447,0.583,2.892,1.166,4.595,1.852C386.817,232.75,386.607,230.965,386.397,229.181z"
			/>
		<path class="st35" d="M25.414,221.643c1.807-0.548,4.814,1.478,5.082-2.369c2.708,2.458,5.274,5.016,7.655,10.265
			C32.806,226.226,29.11,223.935,25.414,221.643z"/>
		<path class="st36" d="M297.093,130.987c-3.292-1.195-6.584-2.389-9.876-3.585c-0.571-0.38-1.433-0.634-1.658-1.161
			c-0.711-1.665,0.885-1.148,1.418-1.096c3.639,0.354,7.278,0.789,10.617,2.463C296.017,128.525,296.753,129.785,297.093,130.987z"
			/>
		<path class="st37" d="M122.733,245.678c2.582-3.054,5.163-6.108,7.744-9.161c0.07,2.192,1.255,3.317,3.384,3.538
			c-2.982,2.029-5.964,4.059-8.946,6.088C124.188,245.988,123.461,245.833,122.733,245.678z"/>
		<path class="st38" d="M482.034,231.081c0.26,1.323,0.635,2.581,1.904,3.326c-2.575,1.735-4.772,4.325-8.959,3.99
			C477.605,235.675,479.819,233.378,482.034,231.081z"/>
		<path class="st39" d="M28.42,237.354c2.058-0.552,4.532,0.341,6.142-1.77c2.286-0.092,4.055,0.721,5.519,3.473
			C35.743,239.533,32.055,238.713,28.42,237.354z"/>
		<path class="st40" d="M104.563,269.291c0,0.713,0.128,1.455-0.023,2.134c-0.551,2.478,2.801,6.183-1.415,7.33
			c-4.026,1.096-7.427-1.048-9.437-4.774c-2.867-5.316-2.094-10.627,0.679-15.666c1.124-2.042,2.859-4.122,5.645-3.386
			c2.789,0.737,4.348,2.791,4.363,5.799c0.014,2.854,0.003,5.708,0.003,8.562C104.44,269.291,104.501,269.291,104.563,269.291z"/>
		<path class="st41" d="M81.453,250.427c6.664,5.53,2.937,12.14,1.891,18.454c-0.395,2.382-2.075,2.174-3.826,1.695
			c-3.334-0.912-6.1-2.608-7.907-5.653c-0.889-4.25-1.67-8.511-1.33-12.887c3.186-4.059,7.257-2.144,11.117-1.647
			C81.397,250.389,81.453,250.427,81.453,250.427z"/>
		<path class="st42" d="M225.02,166.576c7.14-7.349,14.039-14.944,22.015-21.434c-0.889,5.745-3.776,10.552-7.119,15.145
			c0.224-1.811,0.449-3.624,0.698-5.624C234.273,157.435,232.169,165.308,225.02,166.576z"/>
		<path class="st43" d="M243.586,396.522c2.4,7.918,4.357,15.877,2.196,24.209C244.4,412.721,243.018,404.71,243.586,396.522z"/>
		<path class="st44" d="M70.282,252.036c-0.34,4.376,0.441,8.637,1.33,12.887C67.286,261.029,66.802,256.737,70.282,252.036z"/>
		<path class="st45" d="M230.42,392.228c2.821-0.042,5.642-0.145,8.462-0.11c2.958,0.037,5.093,1.051,4.727,4.58
			C240.482,391.457,234.162,395.645,230.42,392.228z"/>
		<path class="st46" d="M335.676,298.261c-1.642,5.942-2.313,12.234-6.177,17.379c-1.215,1.617-0.777,2.767,0.35,4.383
			c5.977,8.566,5.394,14.005-2.858,21.272c-2.997,2.639-3.473,4.251-0.572,7.041c2.085,2.005,3.088,4.777,3.73,7.618
			c0.522,2.307,0.392,4.544-2.223,5.261c-2.394,0.656-4.546-0.605-4.823-3.033c-0.596-5.22-4.412-7.613-8.02-10.376
			c-5.182-3.969-5.014-5.563,1.009-8.025c4.87-1.991,8.867-4.623,10.09-10.162c0.484-2.192,0.805-4.381-1.355-5.821
			c-2.261-1.507-4.703-1.155-6.623,0.554c-1.936,1.724-3.767,3.684-5.197,5.837c-5.464,8.229-6.457,8.348-11.134,0.04
			c-2.132-3.786-5.33-6.001-9.064-7.744c-4.101-1.913-6.845-0.083-9.028,3.285c-2.32,3.58,0.003,5.966,2.422,7.904
			c1.812,1.453,4.154,2.284,6.328,3.235c2.37,1.036,5.696,1.6,4.366,5.167c-1.133,3.04-3.848,1.841-6.128,1.019
			c-4.508-1.625-8.979-1.192-13.25,0.713c-2.557,1.141-4.527,3.383-3.71,6.233c0.848,2.962,3.845,2.34,6.146,1.993
			c2.09-0.315,4.099-1.15,6.159-1.698c1.93-0.513,3.917-0.747,4.897,1.514c0.967,2.231-0.329,3.579-2.214,4.556
			c-2.743,1.424-5.687,2.528-7.806,4.946c-2.144,2.447-2.482,5.18-0.864,7.923c1.585,2.689,4.188,1.809,6.436,1.167
			c5.028-1.437,8.858-4.066,10.807-9.422c2.2-6.046,6.535-6.805,9.638-1.382c2.3,4.02,10.178,6.946,4.352,13.705
			c-2.16-0.123-4.393-0.32-5.712-2.272c-2.681-3.968-4.434-1.866-6.196,0.778c-6.665,4.536-13.681,7.72-22.042,5.73
			c-2.937-2.523-5.835-5.266-6.012-9.343c-0.187-4.315-2.343-3.511-5.187-2.904c-16.233,3.469-31.911,2.457-47.716-3.56
			c-5.76-2.193-13.709-2.504-19.488,3.033c-1.045,1.826-1.054,4.189-2.935,5.585c-1.372,1.018-2.775,2.049-4.523,0.968
			c-1.947-1.205-2.463-2.975-1.1-4.853c2.138-2.948,2.288-6.094,1.652-9.515c-0.341-1.832-0.625-3.964,1.67-4.915
			c2.039-0.845,3.721,0.011,5.024,1.634c2.328,2.9,5.334,3.91,8.907,3.146c3.852-0.823,7.959-1.97,7.697-6.857
			c-0.262-4.902-4.328-6.317-8.513-7.079c-2.95-0.537-7.821,2.683-8.455-1.997c-0.617-4.56,4.84-4.032,7.96-5.21
			c1.114-0.421,2.341-0.614,3.365-1.183c2.277-1.264,5.138-2.558,4.069-5.814c-1.143-3.481-4.117-2.374-6.652-1.749
			c-4.055,0.999-7.267,3.44-10.388,6.072c-1.693,1.428-3.268,4.016-5.927,1.388c-2.432-2.403-0.847-4.278,0.916-6.069
			c3.604-3.661,4.576-8.236,4.537-13.136c-0.013-1.602,0.564-3.608-1.258-4.518c-2.021-1.011-3.745,0.452-5.093,1.65
			c-4.118,3.657-6.278,8.327-6.215,13.892c0.027,2.368,0.473,4.789-1.653,6.593c-4.377,0.099-5.886-3.378-7.743-6.322
			c-1.971-3.125-4.008-6.022-8.375-4.844c-2.124,0.573-4.198,1.619-4.298,4.087c-0.163,4.046,2.121,6.525,5.884,7.735l-0.073-0.034
			c3.047,4.297,7.717,2.266,11.679,2.995c2.225,8.247-3.431,14.436-5.734,21.48c-0.588,1.797-2.732,1.767-4.346,1.012
			c-1.714-0.801-1.929-2.278-1.758-4.162c0.427-4.705,5.967-9.276,3.666-12.819c-2.163-3.33-8.468-3.513-12.256-6.549
			c-7.135-5.719-6.886-12.021,0.819-18.943c3.737-0.808,7.475-1.617,11.782-2.549c-1.72-3.154-3.164-5.802-4.609-8.451
			c-0.437-7.027-4.225-13.176-5.269-20.023c-0.463-3.038-2.584-7.08,2.436-8.29c4.92-1.186,5.095,2.848,5.836,6.131
			c2.206,9.777,4.797,19.423,10.103,28.28c3.593-2.638,6.506-5.583,10.45-6.898c7.561-2.521,13.52,0.804,13.458,8.719
			c-0.05,6.321,2.655,6.634,7.587,6.773c9.294,0.261,12.716,7.242,7.882,15.249c-0.363,0.601-1.19,1.128-1.196,1.695
			c-0.012,1.125,0.038,2.926,0.692,3.278c6.442,3.468,0.414,14.901,10.305,16.011c12.665,5.659,25.461,3.473,38.736,0.849
			c-0.937-2.005-1.716-3.672-2.495-5.338c0.315-1.63,0.414-3.34,0.983-4.877c1.952-5.276,6.767-7.237,10.854-10.383
			c2.698-2.077-3.858-8.176-0.932-13.424c4.394-7.881,13.811-9.84,23.05-4.604c2.987,1.693,5.948,7.048,8.392,5.129
			c5.769-4.53,14.522-6.093,16.772-14.457c1.961-7.293,5.036-14.373,4.155-22.286c-0.67-6.028,2.306-6.577,6.829-3.767
			C335.462,288.247,335.569,293.254,335.676,298.261z"/>
		<path class="st47" d="M242.65,295.951c-9.463,0.102-16.001-6.562-15.981-16.29c0.021-9.988,8.478-18.259,18.918-18.502
			c9.952-0.231,17.051,6.372,17.25,16.045C263.053,287.664,254.264,295.825,242.65,295.951z M254.408,276.861
			c-0.115-4.071-1.179-8.893-7.84-9.281c-6.4-0.373-12.353,4.631-12.396,10.087c-0.054,6.99,3.237,11.003,9.119,11.12
			C250.717,288.934,254.414,285.404,254.408,276.861z"/>
		<path class="st48" d="M264.67,227.153c8.01-6.231,13.195-4.878,16.644,4.527c2.284,6.229,2.224,12.617-0.125,18.787
			c-2.77,7.278-8.311,9.027-15.157,5.133C260.314,246.369,260.457,236.858,264.67,227.153z"/>
		<path class="st49" d="M235.585,241.229c-0.048,10.058-4.29,16.69-10.719,16.799c-5.356,0.091-10.201-7.628-10.38-16.582
			c-0.024-1.184,0.012-2.38,0.145-3.556c1.13-9.971,4.975-14.776,11.512-14.433c4.989,0.261,8.935,6.487,9.434,14.922
			C235.634,239.325,235.585,240.279,235.585,241.229z"/>
		<path class="st50" d="M199.006,364.805c5.779-5.537,13.728-5.226,19.488-3.033c15.806,6.018,31.484,7.03,47.716,3.56
			c2.843-0.608,4.999-1.412,5.187,2.904c0.177,4.077,3.075,6.82,6.012,9.343c-3.874,0.201-5.727-2.49-6.601-5.479
			c-1.224-4.189-3.818-4.926-7.544-4.299c-15.541,2.613-30.58,1.795-45.51-4.265C212.071,361.23,205.189,363.02,199.006,364.805z"/>
		<path class="st51" d="M167.556,333.493c-3.763-1.21-6.047-3.688-5.884-7.735c0.099-2.467,2.173-3.513,4.298-4.087
			c4.367-1.178,6.404,1.719,8.375,4.844c1.857,2.944,3.366,6.421,7.743,6.322c-0.976,1.207-1.95,2.413-2.926,3.618
			c-3.963-0.73-8.632,1.3-11.677-2.996c1.383,0.275,2.766,0.535,4.143,0.828c1.412,0.3,3.076,0.773,4.036-0.437
			c1.155-1.457-0.403-2.589-1.228-3.65c-2.328-2.995-3.99-8.811-8.785-6.009C159.956,327.52,167.688,330.132,167.556,333.493z"/>
		<path class="st52" d="M265.253,351.91c0.779,1.667,1.558,3.333,2.495,5.338c-13.274,2.624-26.071,4.81-38.736-0.849
			c8.704,0.244,17.331,1.917,26.095,1.243C259.477,357.307,263.549,356.8,265.253,351.91z"/>
		<path class="st53" d="M264.67,227.153c-4.213,9.706-4.356,19.216,1.362,28.447C258.01,249.173,257.335,235.08,264.67,227.153z"/>
		<path class="st54" d="M166.725,305.474c1.444,2.648,2.889,5.297,4.609,8.451c-4.307,0.932-8.045,1.741-11.782,2.549
			c0.57-0.686,1.083-1.905,1.718-1.972C167.16,313.873,167.61,310.108,166.725,305.474z"/>
		<path class="st55" d="M283.632,272.791c0.036,1.851-0.902,2.773-2.375,3.074c-1.615,0.329-2.766-0.514-3.001-2.069
			c-0.267-1.763,0.339-3.295,2.456-3.313C282.27,270.469,283.099,271.62,283.632,272.791z"/>
		<path class="st56" d="M290.428,285.713c-0.417,1.722-1.605,2.476-3.167,2.179c-1.697-0.322-3.343-1.182-2.808-3.32
			c0.406-1.623,1.88-1.977,3.436-1.718C289.517,283.126,290.375,284.095,290.428,285.713z"/>
		<path class="st57" d="M302.877,290.091c-0.501,1.717-1.555,3.04-3.438,2.664c-1.407-0.28-2.333-1.55-2.275-3.129
			c0.079-2.167,1.62-2.753,3.377-2.475C301.985,287.38,303.064,288.321,302.877,290.091z"/>
		<path class="st58" d="M290.089,297.3c-0.315,1.562-1.208,2.686-2.886,2.398c-1.771-0.305-3.173-1.469-2.843-3.431
			c0.27-1.605,1.738-2.262,3.293-1.987C289.196,294.551,290.16,295.552,290.089,297.3z"/>
		<path class="st59" d="M303.425,274.178c2.044,0.145,3.61,0.716,3.678,2.808c0.055,1.695-1.134,2.616-2.73,2.507
			c-1.47-0.1-2.738-0.899-3.083-2.494C300.884,275.122,302.213,274.581,303.425,274.178z"/>
		<path class="st60" d="M197.223,287.319c1.639,0.215,3.081,1.022,3.318,2.849c0.213,1.635-0.968,2.637-2.509,2.586
			c-1.862-0.062-2.916-1.425-3.049-3.178C194.888,288.317,195.778,287.492,197.223,287.319z"/>
		<path class="st61" d="M335.676,298.261c-0.107-5.007-0.214-10.014-0.319-15.02c4.217,5.162,1.175,11.101,1.6,16.66
			C336.972,300.101,335.941,299.004,335.676,298.261z"/>
		<path class="st62" d="M299.451,371.85c1.761-2.645,3.515-4.747,6.196-0.778c1.319,1.952,3.552,2.149,5.712,2.272
			c-1.4,3.088-3.772,1.542-5.297,0.622C303.945,372.69,301.921,371.743,299.451,371.85z"/>
		<path class="st63" d="M295.516,268.619c1.417,0.288,2.576,1.137,2.547,2.749c-0.032,1.742-1.357,2.492-2.91,2.148
			c-1.447-0.321-2.573-1.429-2.336-3.049C293,269.216,294.023,268.526,295.516,268.619z"/>
		<path class="st64" d="M280.2,289.955c-0.615,1.848-1.364,3.082-3.063,2.85c-1.501-0.205-2.665-1.21-2.653-2.788
			c0.013-1.725,1.371-2.389,2.901-2.275C278.888,287.854,279.864,288.775,280.2,289.955z"/>
		<path class="st65" d="M190.296,283.115c-1.609-0.106-2.61-1.09-3.194-2.45c-0.679-1.584,0.485-2.192,1.7-2.354
			c1.575-0.21,2.797,0.561,3.204,2.14C192.361,281.828,191.51,282.637,190.296,283.115z"/>
		<path class="st66" d="M197.36,272.56c-1.349-0.553-2.681-1.326-2.688-2.894c-0.005-1.29,1.085-2.074,2.409-1.923
			c1.588,0.181,2.549,1.23,2.487,2.833C199.519,271.813,198.963,272.859,197.36,272.56z"/>
		<path class="st67" d="M213.245,288.385c-0.497,1.246-1.301,2.019-2.644,1.856c-1.529-0.186-2.661-0.984-2.549-2.658
			c0.098-1.454,1.237-1.839,2.514-1.67C212.026,286.106,213.198,286.693,213.245,288.385z"/>
		<path class="st68" d="M208.088,279.119c-0.228,1.564-1.07,2.521-2.716,2.522c-1.404,0.001-2.109-1.038-2.27-2.189
			c-0.177-1.271,0.677-2.269,1.915-2.444C206.526,276.795,207.725,277.431,208.088,279.119z"/>
		<path class="st69" d="M348.856,207.926c9.754,9.219,19.517,18.43,27.8,29.06C366.403,228.244,355.841,219.796,348.856,207.926z"/>
		<path class="st70" d="M285.501,158.671c-4.375-6.402-8.577-12.887-9.962-20.725c2.903,0.981,4.771,2.993,5.804,5.835
			c-2.439,3.168,0.866,5.133,1.669,7.584C283.811,153.806,285.794,155.844,285.501,158.671z"/>
		<path class="st4" d="M386.397,229.181c0.21,1.784,0.42,3.569,0.659,5.597c-1.703-0.686-3.148-1.268-4.595-1.852
			c-24.7-27.935-52.273-52.932-79.642-78.146c-5.068-4.669-9.637-9.882-14.437-14.845c0.981-2.228,3.119-1.902,4.954-2.245
			c12.656,5.903,23.187,14.903,33.8,23.673c21.005,17.357,40.173,36.485,54.786,59.736
			C383.559,223.703,384.912,226.483,386.397,229.181z"/>
		<path class="st71" d="M293.337,137.692c-1.835,0.343-3.973,0.017-4.954,2.245c-1.92-1.932-3.976-3.752-5.721-5.833
			c-1.469-1.752,0.382-1.5,1.315-1.706C287.098,134.162,290.217,135.927,293.337,137.692z"/>
		<path class="st72" d="M133.861,240.055c-2.129-0.221-3.314-1.346-3.384-3.538c21.466-25.61,45.586-48.465,71.819-69.116
			c4.099-3.227,8.376-6.226,12.573-9.332c5.094-0.121,7.61-5.461,12.894-6.878c-1.542,3.359-4.843,4.465-5.126,7.619
			c-1.318,1.225-2.636,2.451-3.956,3.677c-6.039,1.816-9.836,5.925-11.994,11.713c-19.215,22.318-41.239,41.649-64.081,60.095
			C139.903,236.478,136.786,238.148,133.861,240.055z"/>
		<path class="st73" d="M222.637,158.811c0.283-3.153,3.584-4.26,5.126-7.619c-5.283,1.416-7.8,6.757-12.894,6.878
			c8.611-6.459,15.677-15.107,26.357-18.646C237.082,147.854,229.235,152.734,222.637,158.811z"/>
		<path class="st74" d="M206.687,174.201c2.158-5.788,5.955-9.897,11.994-11.713C214.684,166.391,210.685,170.296,206.687,174.201z"
			/>
		<path class="st75" d="M139.964,215.675c-3.886,0.559-5.088,4.893-8.791,6.339c0.234-2.092,0.436-3.892,0.637-5.694
			c15.432-25.002,37.168-43.596,61.127-59.867c6.069-4.121,12.533-7.66,18.817-11.466c2.078,1.119,4.911-2.891,6.583,0.971
			c-15.32,12.845-30.895,25.401-45.877,38.629C161.233,194.502,150.769,205.281,139.964,215.675z"/>
		<path class="st76" d="M218.338,145.959c-1.672-3.862-4.505,0.148-6.583-0.971c5.015-3.752,10.295-7.027,16.293-9.001
			c0.19,0.784,0.38,1.568,0.57,2.353C225.191,140.879,221.764,143.419,218.338,145.959z"/>
		<path class="st77" d="M228.618,138.339c-0.19-0.784-0.38-1.568-0.57-2.353c2.741-1.578,5.452-3.225,8.686-3.618
			C235.099,135.814,231.516,136.612,228.618,138.339z"/>
		<path class="st78" d="M254.408,276.861c0.007,8.544-3.691,12.073-11.117,11.926c-5.882-0.117-9.173-4.13-9.119-11.12
			c0.042-5.456,5.996-10.46,12.396-10.087C253.229,267.967,254.293,272.789,254.408,276.861z"/>
		<path class="st79" d="M167.556,333.493c0.132-3.362-7.6-5.973-1.905-9.301c4.795-2.802,6.457,3.014,8.785,6.009
			c0.825,1.061,2.383,2.193,1.228,3.65c-0.96,1.21-2.624,0.737-4.036,0.437c-1.376-0.292-2.76-0.553-4.143-0.828
			C167.483,333.459,167.556,333.493,167.556,333.493z"/>
	</g>
</g>
</svg>
